<?xml version="1.0" encoding="utf-8"?>
<!-- Generator: Adobe Illustrator 19.1.0, SVG Export Plug-In . SVG Version: 6.00 Build 0)  -->
<!DOCTYPE svg PUBLIC "-//W3C//DTD SVG 1.1//EN" "http://www.w3.org/Graphics/SVG/1.1/DTD/svg11.dtd">
<svg version="1.1" id="Layer_1" xmlns="http://www.w3.org/2000/svg" xmlns:xlink="http://www.w3.org/1999/xlink" x="0px" y="0px"
	 viewBox="0 0 46 46" style="enable-background:new 0 0 46 46;" xml:space="preserve">
<style type="text/css">
	.st0{fill:#FFFFFF;}
</style>
<path class="st0" d="M23,0C10.3,0,0,10.3,0,23c0,12.7,10.3,23,23,23s23-10.3,23-23C46,10.3,35.7,0,23,0z M37,20v12h-4V20h0.1
	c0-2-2.1-3.7-4.1-3.7c-2,0-4.1,1.4-4.1,3.7l0,0v11.6L24.9,32h-3.9H21V19.9c0-2.3-2-3.6-4.1-3.6c-2,0-4,1.4-4,3.7l0.1,0v12H9V19.6
	l0,0c0-4.4,4-7.2,8-7.2c2.2,0,4.5,0.9,6,2.5c1.5-1.6,3.8-2.3,6-2.3C33,12.6,37,15,37,20L37,20z"/>
</svg>
