<?xml version="1.0" encoding="utf-8"?>
<!-- Generator: Adobe Illustrator 19.1.0, SVG Export Plug-In . SVG Version: 6.00 Build 0)  -->
<svg version="1.1" id="Layer_1" xmlns="http://www.w3.org/2000/svg" xmlns:xlink="http://www.w3.org/1999/xlink" x="0px" y="0px"
	 viewBox="0 0 198 36" enable-background="new 0 0 198 36" xml:space="preserve">
<g>
	<g>
		<path fill="#FFFFFF" d="M24.9,1.4c-2.6,0-5.3,1-7.1,2.9c-1.8-1.9-4.5-2.9-7.1-2.9C6,1.4,1.3,4.6,1.3,9.8l0,0V24h4.6V10.3l0,0
			c0-2.7,2.4-4.4,4.8-4.4c2.4,0,4.8,1.6,4.8,4.3V24h0h4.6h0V10.3l0,0c0-2.7,2.4-4.4,4.8-4.4c2.4,0,4.8,1.7,4.8,4.4h0V24h4.6V9.8h0
			C34.3,4.6,29.6,1.4,24.9,1.4z"/>
		<path fill="#FFFFFF" d="M48.4,1C42,1,37.8,5.7,37.8,12.5C37.8,19.3,42,24,48.4,24c6.3,0,10.6-4.7,10.6-11.5
			C58.9,5.7,54.7,1,48.4,1z M48.4,19.1c-3.6,0-6.1-2.7-6.1-6.6c0-3.9,2.4-6.6,6.1-6.6c3.6,0,6.1,2.7,6.1,6.6
			C54.4,16.4,52,19.1,48.4,19.1z"/>
		<path fill="#FFFFFF" d="M67.2,24V10.3l0,0c0-2.7,2.4-4.4,4.8-4.4c2.4,0,4.8,1.7,4.8,4.4h0l0,0V24h4.6V9.8l0,0h0
			c0-5.3-4.7-8.5-9.4-8.5c-4.7,0-9.4,3.3-9.4,8.5l0,0V24H67.2z"/>
		<path fill="#FFFFFF" d="M124.4,1L120,17.8l-0.1,0.2c-0.2,0.7-0.8,1.2-1.5,1.2c-0.7,0-1.3-0.5-1.5-1.2l-0.1-0.2L112.4,1h-4.7
			l4.8,18c0.5,2.8,3,5,6,5c3,0,5.5-2.2,6-5l4.8-18H124.4z"/>
		<path fill="#FFFFFF" d="M95.6,1c-6.3,0-10.6,4.7-10.6,11.5c0,6.8,4.2,11.5,10.6,11.5c6.3,0,10.6-4.7,10.6-11.5
			C106.2,5.7,102,1,95.6,1z M95.6,19.1c-3.6,0-6.1-2.7-6.1-6.6c0-3.9,2.4-6.6,6.1-6.6c3.6,0,6.1,2.7,6.1,6.6
			C101.7,16.4,99.3,19.1,95.6,19.1z"/>
		<path fill="#FFFFFF" d="M140.9,1c-6.3,0-10.6,4.7-10.6,11.5c0,6.8,4.2,11.5,10.6,11.5c6.3,0,10.6-4.7,10.6-11.5
			C151.5,5.7,147.2,1,140.9,1z M140.9,19.1c-3.6,0-6.1-2.7-6.1-6.6c0-3.9,2.4-6.6,6.1-6.6c3.6,0,6.1,2.7,6.1,6.6
			C147,16.4,144.5,19.1,140.9,19.1z"/>
		<path fill="#FFFFFF" d="M169.9,17c-1.1,1.3-2.7,2.1-4.6,2.1c-3.6,0-6.1-2.7-6.1-6.6c0-3.9,2.4-6.6,6.1-6.6c1.9,0,3.5,0.7,4.6,2
			l3.4-3.4c-1.9-2.2-4.6-3.5-8-3.5c-6.3,0-10.6,4.7-10.6,11.5c0,6.8,4.2,11.5,10.6,11.5c3.4,0,6.2-1.3,8-3.6L169.9,17z"/>
		<path fill="#FFFFFF" d="M190.8,17c-1.1,1.3-2.7,2.1-4.6,2.1c-2.9,0-5.1-1.7-5.8-4.4H192l0,0h4.6c0.1-0.7,0.2-1.4,0.2-2.2
			c0-6.8-4.2-11.5-10.6-11.5c-6.3,0-10.6,4.7-10.6,11.5c0,6.8,4.2,11.5,10.6,11.5c3.4,0,6.2-1.3,8-3.6L190.8,17z M186.2,5.9
			c2.8,0,4.9,1.6,5.7,4.2h-11.4C181.2,7.5,183.3,5.9,186.2,5.9z"/>
	</g>
	<g>
		<path fill="#FFFFFF" d="M62.5,31.2H60v1.2h2.2v0.7H60v1.8h-0.8v-4.4h3.3V31.2z"/>
		<path fill="#FFFFFF" d="M67.1,33c0,1.3-0.7,2-1.9,2c-1.2,0-1.9-0.7-1.9-2v-2.6h0.8V33c0,0.8,0.4,1.3,1.1,1.3
			c0.7,0,1.1-0.4,1.1-1.2v-2.6h0.8V33z"/>
		<path fill="#FFFFFF" d="M70,34.9h-0.8v-3.7h-1.4v-0.7h3.6v0.7H70V34.9z"/>
		<path fill="#FFFFFF" d="M76,33c0,1.3-0.7,2-1.9,2c-1.2,0-1.9-0.7-1.9-2v-2.6H73V33c0,0.8,0.4,1.3,1.1,1.3c0.7,0,1.1-0.4,1.1-1.2
			v-2.6H76V33z"/>
		<path fill="#FFFFFF" d="M79.9,34.9l-1.1-1.5h-1v1.5h-0.8v-4.4h2c1,0,1.6,0.5,1.6,1.4c0,0.7-0.4,1.2-1.1,1.3l1.2,1.7H79.9z
			 M79,31.2h-1.1v1.5H79c0.6,0,0.9-0.3,0.9-0.7C79.9,31.5,79.6,31.2,79,31.2z"/>
		<path fill="#FFFFFF" d="M84.9,31.2h-2.5v1.2h2.2V33h-2.2v1.2H85v0.7h-3.3v-4.4h3.3V31.2z"/>
		<path fill="#FFFFFF" d="M91.1,31.2h-2.5v1.2h2.2v0.7h-2.2v1.8h-0.8v-4.4h3.3V31.2z"/>
		<path fill="#FFFFFF" d="M94.8,34.9l-1.1-1.5h-1v1.5H92v-4.4h2c1,0,1.6,0.5,1.6,1.4c0,0.7-0.4,1.2-1.1,1.3l1.2,1.7H94.8z
			 M93.9,31.2h-1.1v1.5h1.1c0.6,0,0.9-0.3,0.9-0.7C94.8,31.5,94.4,31.2,93.9,31.2z"/>
		<path fill="#FFFFFF" d="M97.4,30.5v4.4h-0.8v-4.4H97.4z"/>
		<path fill="#FFFFFF" d="M101.8,31.2h-2.5v1.2h2.2V33h-2.2v1.2h2.5v0.7h-3.3v-4.4h3.3V31.2z"/>
		<path fill="#FFFFFF" d="M105.9,30.5h0.8v4.4H106l-2.4-3.2v3.2h-0.8v-4.4h0.7l2.4,3.1V30.5z"/>
		<path fill="#FFFFFF" d="M109.4,34.9h-1.7v-4.4h1.7c1.4,0,2.4,1,2.4,2.2C111.8,34,110.8,34.9,109.4,34.9z M109.4,31.2h-0.9v3h0.9
			c0.9,0,1.5-0.6,1.5-1.5S110.4,31.2,109.4,31.2z"/>
		<path fill="#FFFFFF" d="M112.7,30.5h0.8v3.7h2.3v0.7h-3.1V30.5z"/>
		<path fill="#FFFFFF" d="M117.9,34.9h-0.8v-1.7l-1.8-2.7h0.9l1.2,2l1.3-2h0.9l-1.8,2.7V34.9z"/>
		<path fill="#FFFFFF" d="M123.9,34.9h-1.7v-4.4h1.7c1.4,0,2.4,1,2.4,2.2C126.3,34,125.3,34.9,123.9,34.9z M123.9,31.2h-0.9v3h0.9
			c0.9,0,1.5-0.6,1.5-1.5S124.9,31.2,123.9,31.2z"/>
		<path fill="#FFFFFF" d="M130.5,31.2H128v1.2h2.2V33H128v1.2h2.5v0.7h-3.3v-4.4h3.3V31.2z"/>
		<path fill="#FFFFFF" d="M133.2,32.4c0.9,0.2,1.4,0.6,1.4,1.3c0,0.8-0.7,1.3-1.6,1.3c-0.7,0-1.3-0.2-1.8-0.7l0.5-0.6
			c0.4,0.4,0.8,0.6,1.4,0.6c0.5,0,0.8-0.2,0.8-0.6c0-0.3-0.2-0.5-1-0.7c-0.9-0.2-1.5-0.5-1.5-1.3c0-0.8,0.6-1.3,1.5-1.3
			c0.6,0,1.2,0.2,1.6,0.6l-0.4,0.6c-0.4-0.3-0.8-0.5-1.2-0.5c-0.5,0-0.7,0.2-0.7,0.5C132.1,32,132.3,32.1,133.2,32.4z"/>
		<path fill="#FFFFFF" d="M136.4,30.5v4.4h-0.8v-4.4H136.4z"/>
		<path fill="#FFFFFF" d="M139.6,35c-1.4,0-2.3-1-2.3-2.3c0-1.2,1-2.3,2.3-2.3c0.8,0,1.2,0.2,1.7,0.6l-0.5,0.6
			c-0.3-0.3-0.7-0.5-1.2-0.5c-0.8,0-1.4,0.7-1.4,1.6c0,0.9,0.6,1.6,1.5,1.6c0.4,0,0.8-0.1,1.1-0.3v-0.8h-1.1v-0.7h1.9v1.9
			C141.1,34.7,140.4,35,139.6,35z"/>
		<path fill="#FFFFFF" d="M145.6,30.5h0.8v4.4h-0.7l-2.4-3.2v3.2h-0.8v-4.4h0.7l2.4,3.1V30.5z"/>
	</g>
</g>
</svg>
